<svg width="356" height="553" viewBox="0 0 356 553" fill="none" xmlns="http://www.w3.org/2000/svg">
<path d="M353.819 482.884C355.281 487.588 355.564 491.541 354.668 494.743C354.074 498.366 353 502.655 351.445 507.609L334.82 551.208L334.187 551.663C333.344 552.269 331.835 552.394 329.661 552.038C328.212 551.801 327.395 551.109 327.211 549.963L224.553 52.0897C223.696 48.229 221.582 47.5107 218.208 49.9349C155.802 94.7821 112.977 126.837 89.7326 146.099C66.9099 165.058 53.4624 180.157 49.39 191.396C45.3177 202.635 46.3246 216.938 52.4107 234.304C52.1735 235.754 51.4223 236.933 50.1573 237.842C48.8923 238.751 47.4758 239.449 45.9078 239.937C44.4585 239.699 43.6416 239.008 43.4572 237.861L0.596297 131.506C0.411916 130.359 1.73622 129.088 4.56922 127.692C7.0992 125.873 8.45638 125.538 8.64076 126.684C9.43119 128.674 10.7355 130.933 12.5536 133.463C15.5838 137.68 19.451 139.057 24.155 137.595C29.2807 135.83 37.9577 130.553 50.1859 121.766L217.797 1.31444C219.484 0.102358 221.717 0.095935 224.497 1.29518C227.396 1.76975 229.03 3.15337 229.398 5.44605L353.819 482.884Z" fill="#CEA763"/>
</svg>
