<svg width="184" height="44" viewBox="0 0 184 44" fill="none" xmlns="http://www.w3.org/2000/svg">
<path d="M29.4895 30.999L27.8014 28.6754L27.0865 29.45V30.999H26.3616V26.2128H27.0865V28.3974L29.1022 26.2128H30.0753L28.2979 28.1392L30.3732 30.999H29.4895ZM31.8842 26.2128H34.8731V30.999H34.1482V26.9278H32.5992C32.5793 28.9733 32.4204 30.2642 31.775 30.7905C31.4672 31.0487 31.1196 31.0685 30.7621 31.0189L30.9012 30.3139C31.1395 30.3536 31.2487 30.294 31.3182 30.2344C31.8147 29.8273 31.8842 28.0995 31.8842 26.4511V26.2128ZM39.2088 26.2128H39.8741V30.999H39.1592V27.4441L36.627 30.999H35.9617V26.2128H36.6866V29.7677L39.2088 26.2128ZM44.1629 26.2128H44.8778V30.999H44.1629V28.9634H41.6903V30.999H40.9655V26.2128H41.6903V28.2484H44.1629V26.2128ZM49.2163 26.2128H49.8816V30.999H49.1666V27.4441L46.6345 30.999H45.9692V26.2128H46.6941V29.7677L49.2163 26.2128ZM54.1008 30.999L52.4128 28.6754L51.6978 29.45V30.999H50.9729V26.2128H51.6978V28.3974L53.7136 26.2128H54.6867L52.9092 28.1392L54.9846 30.999H54.1008ZM59.2531 30.999H58.5382V30.4231C58.1112 30.7905 57.5551 31.0685 56.8699 31.0685C55.9862 31.0685 55.3308 30.6316 55.3308 29.8273C55.3308 28.884 56.0656 28.457 57.5352 28.2187C58.28 28.0995 58.568 27.9605 58.558 27.6427C58.5481 27.315 58.3793 26.7888 57.4657 26.7888C56.6217 26.7888 56.3834 27.2058 56.2642 27.6129L55.6287 27.464C55.7578 26.8185 56.3139 26.1433 57.4856 26.1433C58.5977 26.1433 59.2432 26.7788 59.2432 27.7917C59.2432 28.7648 59.2531 30.999 59.2531 30.999ZM56.9295 30.3933C57.8629 30.3933 58.568 29.8074 58.558 28.9435V28.7251C58.2998 28.7747 57.992 28.8145 57.6345 28.874C56.6018 29.0428 56.0855 29.2514 56.0855 29.7776C56.0855 30.3039 56.6912 30.3933 56.9295 30.3933ZM64.655 26.1433C66.0154 26.1433 66.9587 27.2356 66.9587 28.596C66.9587 29.9663 66.0154 31.0785 64.655 31.0785C63.7811 31.0785 63.0761 30.6316 62.6789 29.9564L63.3045 29.6486C63.5925 30.0855 64.0592 30.3834 64.655 30.3834C65.5089 30.3834 66.0749 29.7776 66.204 28.9634H64.0294V28.2484H66.204C66.0749 27.4342 65.5089 26.8384 64.655 26.8384C64.0592 26.8384 63.5925 27.1065 63.3045 27.5534L62.6789 27.2455C63.0761 26.5703 63.7811 26.1433 64.655 26.1433ZM69.9111 30.3734C70.497 30.3734 70.9637 30.1053 71.2517 29.6585L71.8772 29.9663C71.48 30.6415 70.775 31.0685 69.9111 31.0685C68.5408 31.0685 67.6074 29.9762 67.6074 28.6159C67.6074 27.2455 68.5408 26.1433 69.9012 26.1433C70.775 26.1433 71.48 26.5902 71.8772 27.2654L71.2517 27.5633C70.9637 27.1264 70.497 26.8384 69.9012 26.8384C68.9281 26.8384 68.3323 27.6328 68.3323 28.6159C68.3323 29.5989 68.9281 30.3734 69.9111 30.3734ZM76.23 26.2128V26.9278H74.681V30.999H73.966V26.9278H72.4269V26.2128H76.23ZM78.9094 26.1433C80.2797 26.1433 81.0741 27.2455 81.0741 28.6159C81.0741 28.6953 81.0642 28.7847 81.0642 28.8641H77.3802C77.4795 29.728 78.0753 30.3734 78.969 30.3734C79.5647 30.3734 80.0017 30.1053 80.2896 29.6585L80.9152 29.9663C80.518 30.6415 79.8428 31.0685 78.969 31.0685C77.6086 31.0685 76.6354 29.9762 76.6354 28.6159C76.6354 27.2455 77.549 26.1433 78.9094 26.1433ZM78.9094 26.8384C78.0951 26.8384 77.5589 27.3945 77.41 28.1491H80.3393C80.2003 27.3945 79.7336 26.8384 78.9094 26.8384ZM85.3259 26.2128V26.9278H83.7769V30.999H83.0619V26.9278H81.5228V26.2128H85.3259ZM89.4206 26.2128H90.0859V30.999H89.371V27.4441L86.8388 30.999H86.1735V26.2128H86.8984V29.7677L89.4206 26.2128ZM94.0967 26.2128H94.8215V30.999H94.0967V29.1223C93.7193 29.3209 93.1831 29.5095 92.8058 29.5095C91.5149 29.5095 91.078 28.7549 91.078 27.6626V26.2128H91.7929V27.6626C91.7929 28.3775 92.0412 28.8442 92.776 28.8442C93.3023 28.8442 93.759 28.6655 94.0967 28.457V26.2128ZM97.9352 26.1433C99.3055 26.1433 100.1 27.2455 100.1 28.6159C100.1 28.6953 100.09 28.7847 100.09 28.8641H96.406C96.5053 29.728 97.1011 30.3734 97.9948 30.3734C98.5905 30.3734 99.0275 30.1053 99.3154 29.6585L99.941 29.9663C99.5438 30.6415 98.8686 31.0685 97.9948 31.0685C96.6344 31.0685 95.6612 29.9762 95.6612 28.6159C95.6612 27.2455 96.5748 26.1433 97.9352 26.1433ZM97.9352 26.8384C97.1209 26.8384 96.5847 27.3945 96.4358 28.1491H99.3651C99.2261 27.3945 98.7594 26.8384 97.9352 26.8384ZM102.949 30.3734C103.535 30.3734 104.002 30.1053 104.29 29.6585L104.915 29.9663C104.518 30.6415 103.813 31.0685 102.949 31.0685C101.579 31.0685 100.646 29.9762 100.646 28.6159C100.646 27.2455 101.579 26.1433 102.939 26.1433C103.813 26.1433 104.518 26.5902 104.915 27.2654L104.29 27.5633C104.002 27.1264 103.535 26.8384 102.939 26.8384C101.966 26.8384 101.37 27.6328 101.37 28.6159C101.37 29.5989 101.966 30.3734 102.949 30.3734ZM108.744 30.999L107.056 28.6754L106.341 29.45V30.999H105.616V26.2128H106.341V28.3974L108.357 26.2128H109.33L107.553 28.1392L109.628 30.999H108.744ZM112.124 26.1433C113.494 26.1433 114.457 27.2455 114.457 28.6159C114.457 29.9862 113.494 31.0785 112.124 31.0785C110.764 31.0785 109.82 29.9862 109.82 28.6159C109.82 27.2455 110.764 26.1433 112.124 26.1433ZM112.124 30.3734C113.107 30.3734 113.733 29.5989 113.733 28.6159C113.733 27.6328 113.107 26.8384 112.124 26.8384C111.141 26.8384 110.545 27.6328 110.545 28.6159C110.545 29.5989 111.141 30.3734 112.124 30.3734ZM117.271 25.6369C116.536 25.6369 115.97 25.061 115.97 24.3361H116.566C116.566 24.7333 116.864 25.0312 117.271 25.0312C117.668 25.0312 117.966 24.7333 117.966 24.3361H118.572C118.572 25.061 117.996 25.6369 117.271 25.6369ZM118.502 26.2128H119.168V30.999H118.453V27.4441L115.921 30.999H115.255V26.2128H115.98V29.7677L118.502 26.2128ZM126.17 30.999L124.482 28.6754L123.767 29.45V30.999H123.042V26.2128H123.767V28.3974L125.783 26.2128H126.756L124.978 28.1392L127.054 30.999H126.17ZM129.55 26.1433C130.92 26.1433 131.883 27.2455 131.883 28.6159C131.883 29.9862 130.92 31.0785 129.55 31.0785C128.189 31.0785 127.246 29.9862 127.246 28.6159C127.246 27.2455 128.189 26.1433 129.55 26.1433ZM129.55 30.3734C130.533 30.3734 131.158 29.5989 131.158 28.6159C131.158 27.6328 130.533 26.8384 129.55 26.8384C128.567 26.8384 127.971 27.6328 127.971 28.6159C127.971 29.5989 128.567 30.3734 129.55 30.3734ZM134.833 30.3734C135.419 30.3734 135.886 30.1053 136.174 29.6585L136.8 29.9663C136.402 30.6415 135.697 31.0685 134.833 31.0685C133.463 31.0685 132.53 29.9762 132.53 28.6159C132.53 27.2455 133.463 26.1433 134.824 26.1433C135.697 26.1433 136.402 26.5902 136.8 27.2654L136.174 27.5633C135.886 27.1264 135.419 26.8384 134.824 26.8384C133.85 26.8384 133.255 27.6328 133.255 28.6159C133.255 29.5989 133.85 30.3734 134.833 30.3734ZM141.939 26.2128H142.595V30.999H141.88V27.4838L140.301 29.7876H139.794L138.225 27.4838V30.999H137.501V26.2128H138.166L140.052 28.9833L141.939 26.2128ZM145.713 26.1433C147.083 26.1433 147.878 27.2455 147.878 28.6159C147.878 28.6953 147.868 28.7847 147.868 28.8641H144.184C144.283 29.728 144.879 30.3734 145.773 30.3734C146.368 30.3734 146.805 30.1053 147.093 29.6585L147.719 29.9663C147.322 30.6415 146.646 31.0685 145.773 31.0685C144.412 31.0685 143.439 29.9762 143.439 28.6159C143.439 27.2455 144.353 26.1433 145.713 26.1433ZM145.713 26.8384C144.899 26.8384 144.363 27.3945 144.214 28.1491H147.143C147.004 27.3945 146.537 26.8384 145.713 26.8384ZM152.13 26.2128V26.9278H150.58V30.999H149.866V26.9278H148.326V26.2128H152.13ZM154.782 26.1433C156.152 26.1433 157.115 27.2455 157.115 28.6159C157.115 29.9862 156.152 31.0785 154.782 31.0785C153.421 31.0785 152.478 29.9862 152.478 28.6159C152.478 27.2455 153.421 26.1433 154.782 26.1433ZM154.782 30.3734C155.765 30.3734 156.39 29.5989 156.39 28.6159C156.39 27.6328 155.765 26.8384 154.782 26.8384C153.799 26.8384 153.203 27.6328 153.203 28.6159C153.203 29.5989 153.799 30.3734 154.782 30.3734ZM158.539 26.2128H161.527V30.999H160.803V26.9278H159.254C159.234 28.9733 159.075 30.2642 158.429 30.7905C158.122 31.0487 157.774 31.0685 157.417 31.0189L157.556 30.3139C157.794 30.3536 157.903 30.294 157.973 30.2344C158.469 29.8273 158.539 28.0995 158.539 26.4511V26.2128ZM164.721 26.1433C166.092 26.1433 167.055 27.2455 167.055 28.6159C167.055 29.9862 166.092 31.0785 164.721 31.0785C163.361 31.0785 162.418 29.9862 162.418 28.6159C162.418 27.2455 163.361 26.1433 164.721 26.1433ZM164.721 30.3734C165.704 30.3734 166.33 29.5989 166.33 28.6159C166.33 27.6328 165.704 26.8384 164.721 26.8384C163.738 26.8384 163.142 27.6328 163.142 28.6159C163.142 29.5989 163.738 30.3734 164.721 30.3734ZM170.901 26.2128V26.9278H168.568V30.999H167.853V26.2128H170.901ZM174.94 26.2128H175.605V30.999H174.89V27.4441L172.358 30.999H171.693V26.2128H172.418V29.7677L174.94 26.2128ZM179.943 26.2128H180.609V30.999H179.894V27.4441L177.362 30.999H176.696V26.2128H177.421V29.7677L179.943 26.2128ZM29.6086 34.2128H30.2739V38.999H29.559V35.4441L27.0269 38.999H26.3616V34.2128H27.0865V37.7677L29.6086 34.2128ZM34.1484 34.2128H38.0607V38.999H37.3359V34.9278H34.8633V38.999H34.1484V34.2128ZM39.8747 34.2128H42.8635V38.999H42.1387V34.9278H40.5896C40.5697 36.9733 40.4109 38.2642 39.7654 38.7905C39.4576 39.0487 39.1101 39.0685 38.7526 39.0189L38.8916 38.3139C39.1299 38.3536 39.2391 38.294 39.3087 38.2344C39.8051 37.8273 39.8747 36.0995 39.8747 34.4511V34.2128ZM47.5293 38.999H46.8143V38.4231C46.3873 38.7905 45.8313 39.0685 45.1461 39.0685C44.2623 39.0685 43.607 38.6316 43.607 37.8273C43.607 36.884 44.3418 36.457 45.8114 36.2187C46.5561 36.0995 46.8441 35.9605 46.8342 35.6427C46.8242 35.315 46.6554 34.7888 45.7419 34.7888C44.8979 34.7888 44.6595 35.2058 44.5404 35.6129L43.9049 35.464C44.034 34.8185 44.59 34.1433 45.7618 34.1433C46.8739 34.1433 47.5193 34.7788 47.5193 35.7917C47.5193 36.7648 47.5293 38.999 47.5293 38.999ZM45.2057 38.3933C46.1391 38.3933 46.8441 37.8074 46.8342 36.9435V36.7251C46.576 36.7747 46.2682 36.8145 45.9107 36.874C44.878 37.0428 44.3616 37.2514 44.3616 37.7776C44.3616 38.3039 44.9674 38.3933 45.2057 38.3933ZM50.575 38.3734C51.1609 38.3734 51.6276 38.1053 51.9156 37.6585L52.5411 37.9663C52.1439 38.6415 51.4389 39.0685 50.575 39.0685C49.2047 39.0685 48.2713 37.9762 48.2713 36.6159C48.2713 35.2455 49.2047 34.1433 50.5651 34.1433C51.4389 34.1433 52.1439 34.5902 52.5411 35.2654L51.9156 35.5633C51.6276 35.1264 51.1609 34.8384 50.5651 34.8384C49.592 34.8384 48.9962 35.6328 48.9962 36.6159C48.9962 37.5989 49.592 38.3734 50.575 38.3734ZM56.8939 34.2128V34.9278H55.3449V38.999H54.6299V34.9278H53.0908V34.2128H56.8939ZM60.9886 34.2128H61.6539V38.999H60.9389V35.4441L58.4068 38.999H57.7415V34.2128H58.4664V37.7677L60.9886 34.2128ZM65.6646 34.2128H66.3895V38.999H65.6646V37.1223C65.2873 37.3209 64.7511 37.5095 64.3738 37.5095C63.0829 37.5095 62.646 36.7549 62.646 35.6626V34.2128H63.3609V35.6626C63.3609 36.3775 63.6092 36.8442 64.344 36.8442C64.8702 36.8442 65.327 36.6655 65.6646 36.457V34.2128ZM69.5031 34.1433C70.8735 34.1433 71.6679 35.2455 71.6679 36.6159C71.6679 36.6953 71.6579 36.7847 71.6579 36.8641H67.9739C68.0732 37.728 68.669 38.3734 69.5627 38.3734C70.1585 38.3734 70.5954 38.1053 70.8834 37.6585L71.509 37.9663C71.1118 38.6415 70.4366 39.0685 69.5627 39.0685C68.2023 39.0685 67.2292 37.9762 67.2292 36.6159C67.2292 35.2455 68.1428 34.1433 69.5031 34.1433ZM69.5031 34.8384C68.6889 34.8384 68.1527 35.3945 68.0037 36.1491H70.9331C70.794 35.3945 70.3273 34.8384 69.5031 34.8384ZM74.5173 38.3734C75.1031 38.3734 75.5698 38.1053 75.8578 37.6585L76.4834 37.9663C76.0862 38.6415 75.3812 39.0685 74.5173 39.0685C73.1469 39.0685 72.2135 37.9762 72.2135 36.6159C72.2135 35.2455 73.1469 34.1433 74.5073 34.1433C75.3812 34.1433 76.0862 34.5902 76.4834 35.2654L75.8578 35.5633C75.5698 35.1264 75.1031 34.8384 74.5073 34.8384C73.5342 34.8384 72.9384 35.6328 72.9384 36.6159C72.9384 37.5989 73.5342 38.3734 74.5173 38.3734ZM80.3122 38.999L78.6241 36.6754L77.9092 37.45V38.999H77.1843V34.2128H77.9092V36.3974L79.9249 34.2128H80.8981L79.1206 36.1392L81.196 38.999H80.3122ZM83.6919 34.1433C85.0623 34.1433 86.0255 35.2455 86.0255 36.6159C86.0255 37.9862 85.0623 39.0785 83.6919 39.0785C82.3315 39.0785 81.3882 37.9862 81.3882 36.6159C81.3882 35.2455 82.3315 34.1433 83.6919 34.1433ZM83.6919 38.3734C84.675 38.3734 85.3006 37.5989 85.3006 36.6159C85.3006 35.6328 84.675 34.8384 83.6919 34.8384C82.7089 34.8384 82.1131 35.6328 82.1131 36.6159C82.1131 37.5989 82.7089 38.3734 83.6919 38.3734ZM88.839 33.6369C88.1042 33.6369 87.5382 33.061 87.5382 32.3361H88.134C88.134 32.7333 88.4319 33.0312 88.839 33.0312C89.2362 33.0312 89.5341 32.7333 89.5341 32.3361H90.1398C90.1398 33.061 89.5639 33.6369 88.839 33.6369ZM90.0703 34.2128H90.7356V38.999H90.0207V35.4441L87.4886 38.999H86.8233V34.2128H87.5481V37.7677L90.0703 34.2128ZM98.5324 38.999H97.6486L96.318 37.1521L94.9973 38.999H94.1136L95.8811 36.5364L94.2129 34.2128H95.0966L96.318 35.9208L97.5394 34.2128H98.4331L96.7648 36.5364L98.5324 38.999ZM102.473 34.2128H103.138V38.999H102.423V35.4441L99.8912 38.999H99.2259V34.2128H99.9508V37.7677L102.473 34.2128ZM106.523 34.1433C107.894 34.1433 108.768 35.2455 108.768 36.6159C108.768 37.9862 107.894 39.0785 106.523 39.0785C105.848 39.0785 105.312 38.8004 104.945 38.3536V41.1637H104.23V34.2128H104.945V34.8682C105.312 34.4214 105.848 34.1433 106.523 34.1433ZM106.523 38.3734C107.506 38.3734 108.043 37.5989 108.043 36.6159C108.043 35.6328 107.506 34.8384 106.523 34.8384C105.55 34.8384 104.984 35.6328 104.984 36.6159C104.984 37.5989 105.55 38.3734 106.523 38.3734ZM112.554 34.2128H113.319L111.641 38.8501C111.343 39.6246 111.114 40.1608 110.836 40.5481C110.459 41.0545 109.923 41.1439 109.347 40.9949L109.476 40.2899C110.151 40.419 110.34 40.2303 110.817 38.999L109.069 34.2128H109.843L111.194 37.9961L112.554 34.2128ZM116.211 34.1433C117.581 34.1433 118.455 35.2455 118.455 36.6159C118.455 37.9862 117.581 39.0785 116.211 39.0785C115.536 39.0785 114.999 38.8004 114.632 38.3536V41.1637H113.917V34.2128H114.632V34.8682C114.999 34.4214 115.536 34.1433 116.211 34.1433ZM116.211 38.3734C117.194 38.3734 117.73 37.5989 117.73 36.6159C117.73 35.6328 117.194 34.8384 116.211 34.8384C115.238 34.8384 114.672 35.6328 114.672 36.6159C114.672 37.5989 115.238 38.3734 116.211 38.3734ZM122.396 34.2128V34.9278H120.062V38.999H119.347V34.2128H122.396ZM126.435 34.2128H127.1V38.999H126.385V35.4441L123.853 38.999H123.188V34.2128H123.912V37.7677L126.435 34.2128ZM131.438 34.2128H132.104V38.999H131.389V35.4441L128.857 38.999H128.191V34.2128H128.916V37.7677L131.438 34.2128Z" fill="#222222"/>
<path d="M8.32556 40.0164C8.20691 40.3724 8.0487 40.6294 7.85094 40.7877C7.65319 40.9854 7.3961 41.2029 7.07969 41.4403L4.11334 43.398H4.05401C3.97491 43.398 3.87603 43.3387 3.75738 43.2201C3.67828 43.141 3.6585 43.0619 3.69805 42.9828L19.479 7.62385C19.5977 7.34699 19.4988 7.20856 19.1824 7.20856C13.3288 7.20856 9.25502 7.28767 6.96104 7.44587C4.70661 7.60408 3.20366 7.94026 2.45218 8.45443C1.70071 8.9686 1.12721 9.89805 0.7317 11.2428C0.652597 11.3219 0.553719 11.3615 0.435065 11.3615C0.316411 11.3615 0.197757 11.3417 0.0791026 11.3021C-2.04981e-08 11.223 -0.0197757 11.1439 0.0197757 11.0648L2.09622 2.58106C2.13577 2.50195 2.2742 2.48218 2.51151 2.52173C2.74882 2.52173 2.8477 2.56128 2.80815 2.64038C2.76859 2.79859 2.74882 2.99635 2.74882 3.23365C2.74882 3.62917 2.9268 3.88625 3.28276 4.0049C3.67828 4.12356 4.44953 4.18289 5.59652 4.18289H21.3182C21.4764 4.18289 21.6148 4.28176 21.7335 4.47952C21.8917 4.63773 21.9312 4.79593 21.8521 4.95414L8.32556 40.0164Z" fill="#CEA763"/>
<path d="M36.3759 18.999L34.7142 14.5605H28.5266L26.8649 18.999H25.1157L30.8879 3.69389H32.331L38.1251 18.999H36.3759ZM29.1169 12.9863H34.1239L31.6095 6.20831L29.1169 12.9863ZM44.5206 17.4248H53.1133V18.999H42.9464V3.69389H52.9822V5.26813H44.5206V10.5593H52.3044V12.1336H44.5206V17.4248ZM64.028 10.5156C66.8485 10.9748 69.6472 11.7182 69.6472 14.7355C69.6472 17.6872 66.8704 19.1739 64.0717 19.1739C60.6171 19.1739 58.5619 17.5341 57.9278 15.8068L59.4364 15.2821C60.0486 16.747 61.7103 17.5997 64.028 17.5997C65.646 17.5997 68.051 16.8782 68.051 14.7355C68.051 13.0738 66.761 12.6146 63.7656 12.068C60.7702 11.5214 58.3432 10.6905 58.3214 7.87001C58.2995 5.61797 60.0049 3.54084 63.7656 3.54084C66.4549 3.54084 68.4446 4.96203 69.0131 6.82051L67.5044 7.34526C67.1109 5.70542 65.4492 5.11508 63.7656 5.11508C61.3824 5.11508 59.8956 6.05526 59.8956 7.87001C59.8956 9.40052 61.1419 10.0127 64.028 10.5156ZM84.4532 3.69389V5.26813H79.7086V18.999H78.1343V5.26813H73.3679V3.69389H84.4532ZM99.3839 3.69389H100.958V18.999H99.3839V12.1336H90.9442V18.999H89.3699V3.69389H90.9442V10.5593H99.3839V3.69389ZM108.116 17.4248H116.709V18.999H106.542V3.69389H116.578V5.26813H108.116V10.5593H115.9V12.1336H108.116V17.4248ZM132.177 3.69389V5.26813H127.432V18.999H125.858V5.26813H121.091V3.69389H132.177ZM137.307 3.69389H138.881V18.999H137.307V3.69389ZM151.894 17.6216C153.993 17.6216 155.764 16.5721 156.813 14.976L158.213 15.6756C156.901 17.7746 154.605 19.1739 151.894 19.1739C147.586 19.1739 144.351 15.6756 144.351 11.3683C144.351 7.06102 147.586 3.56271 151.894 3.56271C154.605 3.56271 156.901 4.94017 158.213 7.06102L156.813 7.73882C155.764 6.16458 153.993 5.11508 151.894 5.11508C148.439 5.11508 145.969 7.91374 145.969 11.3683C145.969 14.8229 148.439 17.6216 151.894 17.6216ZM168.685 10.5156C171.506 10.9748 174.305 11.7182 174.305 14.7355C174.305 17.6872 171.528 19.1739 168.729 19.1739C165.274 19.1739 163.219 17.5341 162.585 15.8068L164.094 15.2821C164.706 16.747 166.368 17.5997 168.685 17.5997C170.303 17.5997 172.708 16.8782 172.708 14.7355C172.708 13.0738 171.418 12.6146 168.423 12.068C165.428 11.5214 163.001 10.6905 162.979 7.87001C162.957 5.61797 164.662 3.54084 168.423 3.54084C171.112 3.54084 173.102 4.96203 173.67 6.82051L172.162 7.34526C171.768 5.70542 170.107 5.11508 168.423 5.11508C166.04 5.11508 164.553 6.05526 164.553 7.87001C164.553 9.40052 165.799 10.0127 168.685 10.5156Z" fill="#222222"/>
</svg>
