<svg width="55" height="103" viewBox="0 0 55 103" fill="none" xmlns="http://www.w3.org/2000/svg">
<path d="M20.7347 93.8658C20.4392 94.7523 20.0452 95.3925 19.5527 95.7866C19.0602 96.2791 18.4199 96.8208 17.6319 97.4118L10.2442 102.288H10.0965C9.89946 102.288 9.65321 102.14 9.3577 101.844C9.1607 101.647 9.11145 101.45 9.20995 101.253L48.5123 13.1925C48.8078 12.503 48.5615 12.1583 47.7735 12.1583C33.1952 12.1583 23.0495 12.3553 17.3364 12.7493C11.7218 13.1433 7.97867 13.9806 6.10713 15.2611C4.23559 16.5416 2.80731 18.8564 1.82229 22.2055C1.62528 22.4025 1.37903 22.501 1.08352 22.501C0.788017 22.501 0.49251 22.4517 0.197004 22.3532C-5.10502e-08 22.1562 -0.049251 21.9592 0.0492511 21.7622L5.22061 0.633529C5.31911 0.436524 5.66387 0.387273 6.25488 0.485773C6.8459 0.485773 7.09215 0.584276 6.99365 0.78128C6.89515 1.17529 6.8459 1.6678 6.8459 2.25881C6.8459 3.24383 7.28916 3.8841 8.17568 4.1796C9.1607 4.47511 11.0815 4.62287 13.938 4.62287H53.0926C53.4866 4.62287 53.8314 4.86912 54.1269 5.36163C54.5209 5.75564 54.6194 6.14965 54.4224 6.54365L20.7347 93.8658Z" fill="#CEA763"/>
</svg>
