<svg width="184" height="44" viewBox="0 0 184 44" fill="none" xmlns="http://www.w3.org/2000/svg">
<path d="M29.4895 30.9922L27.8014 28.6686L27.0865 29.4431V30.9922H26.3616V26.206H27.0865V28.3906L29.1022 26.206H30.0753L28.2979 28.1324L30.3732 30.9922H29.4895ZM31.8842 26.206H34.8731V30.9922H34.1482V26.9209H32.5992C32.5793 28.9665 32.4204 30.2574 31.775 30.7837C31.4672 31.0418 31.1196 31.0617 30.7621 31.012L30.9012 30.307C31.1395 30.3467 31.2487 30.2872 31.3182 30.2276C31.8147 29.8205 31.8842 28.0927 31.8842 26.4443V26.206ZM39.2088 26.206H39.8741V30.9922H39.1592V27.4373L36.627 30.9922H35.9617V26.206H36.6866V29.7609L39.2088 26.206ZM44.1629 26.206H44.8778V30.9922H44.1629V28.9566H41.6903V30.9922H40.9655V26.206H41.6903V28.2416H44.1629V26.206ZM49.2163 26.206H49.8816V30.9922H49.1666V27.4373L46.6345 30.9922H45.9692V26.206H46.6941V29.7609L49.2163 26.206ZM54.1008 30.9922L52.4128 28.6686L51.6978 29.4431V30.9922H50.9729V26.206H51.6978V28.3906L53.7136 26.206H54.6867L52.9092 28.1324L54.9846 30.9922H54.1008ZM59.2531 30.9922H58.5382V30.4163C58.1112 30.7837 57.5551 31.0617 56.8699 31.0617C55.9862 31.0617 55.3308 30.6248 55.3308 29.8205C55.3308 28.8771 56.0656 28.4501 57.5352 28.2118C58.28 28.0927 58.568 27.9536 58.558 27.6359C58.5481 27.3082 58.3793 26.7819 57.4657 26.7819C56.6217 26.7819 56.3834 27.199 56.2642 27.6061L55.6287 27.4572C55.7578 26.8117 56.3139 26.1365 57.4856 26.1365C58.5977 26.1365 59.2432 26.772 59.2432 27.7848C59.2432 28.758 59.2531 30.9922 59.2531 30.9922ZM56.9295 30.3865C57.8629 30.3865 58.568 29.8006 58.558 28.9367V28.7182C58.2998 28.7679 57.992 28.8076 57.6345 28.8672C56.6018 29.036 56.0855 29.2445 56.0855 29.7708C56.0855 30.2971 56.6912 30.3865 56.9295 30.3865ZM64.655 26.1365C66.0154 26.1365 66.9587 27.2288 66.9587 28.5892C66.9587 29.9595 66.0154 31.0716 64.655 31.0716C63.7811 31.0716 63.0761 30.6248 62.6789 29.9496L63.3045 29.6417C63.5925 30.0786 64.0592 30.3765 64.655 30.3765C65.5089 30.3765 66.0749 29.7708 66.204 28.9566H64.0294V28.2416H66.204C66.0749 27.4274 65.5089 26.8316 64.655 26.8316C64.0592 26.8316 63.5925 27.0997 63.3045 27.5465L62.6789 27.2387C63.0761 26.5635 63.7811 26.1365 64.655 26.1365ZM69.9111 30.3666C70.497 30.3666 70.9637 30.0985 71.2517 29.6517L71.8772 29.9595C71.48 30.6347 70.775 31.0617 69.9111 31.0617C68.5408 31.0617 67.6074 29.9694 67.6074 28.609C67.6074 27.2387 68.5408 26.1365 69.9012 26.1365C70.775 26.1365 71.48 26.5833 71.8772 27.2586L71.2517 27.5565C70.9637 27.1195 70.497 26.8316 69.9012 26.8316C68.9281 26.8316 68.3323 27.626 68.3323 28.609C68.3323 29.5921 68.9281 30.3666 69.9111 30.3666ZM76.23 26.206V26.9209H74.681V30.9922H73.966V26.9209H72.4269V26.206H76.23ZM78.9094 26.1365C80.2797 26.1365 81.0741 27.2387 81.0741 28.609C81.0741 28.6885 81.0642 28.7778 81.0642 28.8573H77.3802C77.4795 29.7212 78.0753 30.3666 78.969 30.3666C79.5647 30.3666 80.0017 30.0985 80.2896 29.6517L80.9152 29.9595C80.518 30.6347 79.8428 31.0617 78.969 31.0617C77.6086 31.0617 76.6354 29.9694 76.6354 28.609C76.6354 27.2387 77.549 26.1365 78.9094 26.1365ZM78.9094 26.8316C78.0951 26.8316 77.5589 27.3876 77.41 28.1423H80.3393C80.2003 27.3876 79.7336 26.8316 78.9094 26.8316ZM85.3259 26.206V26.9209H83.7769V30.9922H83.0619V26.9209H81.5228V26.206H85.3259ZM89.4206 26.206H90.0859V30.9922H89.371V27.4373L86.8388 30.9922H86.1735V26.206H86.8984V29.7609L89.4206 26.206ZM94.0967 26.206H94.8215V30.9922H94.0967V29.1154C93.7193 29.314 93.1831 29.5027 92.8058 29.5027C91.5149 29.5027 91.078 28.748 91.078 27.6557V26.206H91.7929V27.6557C91.7929 28.3707 92.0412 28.8374 92.776 28.8374C93.3023 28.8374 93.759 28.6587 94.0967 28.4501V26.206ZM97.9352 26.1365C99.3055 26.1365 100.1 27.2387 100.1 28.609C100.1 28.6885 100.09 28.7778 100.09 28.8573H96.406C96.5053 29.7212 97.1011 30.3666 97.9948 30.3666C98.5905 30.3666 99.0275 30.0985 99.3154 29.6517L99.941 29.9595C99.5438 30.6347 98.8686 31.0617 97.9948 31.0617C96.6344 31.0617 95.6612 29.9694 95.6612 28.609C95.6612 27.2387 96.5748 26.1365 97.9352 26.1365ZM97.9352 26.8316C97.1209 26.8316 96.5847 27.3876 96.4358 28.1423H99.3651C99.2261 27.3876 98.7594 26.8316 97.9352 26.8316ZM102.949 30.3666C103.535 30.3666 104.002 30.0985 104.29 29.6517L104.915 29.9595C104.518 30.6347 103.813 31.0617 102.949 31.0617C101.579 31.0617 100.646 29.9694 100.646 28.609C100.646 27.2387 101.579 26.1365 102.939 26.1365C103.813 26.1365 104.518 26.5833 104.915 27.2586L104.29 27.5565C104.002 27.1195 103.535 26.8316 102.939 26.8316C101.966 26.8316 101.37 27.626 101.37 28.609C101.37 29.5921 101.966 30.3666 102.949 30.3666ZM108.744 30.9922L107.056 28.6686L106.341 29.4431V30.9922H105.616V26.206H106.341V28.3906L108.357 26.206H109.33L107.553 28.1324L109.628 30.9922H108.744ZM112.124 26.1365C113.494 26.1365 114.457 27.2387 114.457 28.609C114.457 29.9793 113.494 31.0716 112.124 31.0716C110.764 31.0716 109.82 29.9793 109.82 28.609C109.82 27.2387 110.764 26.1365 112.124 26.1365ZM112.124 30.3666C113.107 30.3666 113.733 29.5921 113.733 28.609C113.733 27.626 113.107 26.8316 112.124 26.8316C111.141 26.8316 110.545 27.626 110.545 28.609C110.545 29.5921 111.141 30.3666 112.124 30.3666ZM117.271 25.6301C116.536 25.6301 115.97 25.0541 115.97 24.3292H116.566C116.566 24.7264 116.864 25.0243 117.271 25.0243C117.668 25.0243 117.966 24.7264 117.966 24.3292H118.572C118.572 25.0541 117.996 25.6301 117.271 25.6301ZM118.502 26.206H119.168V30.9922H118.453V27.4373L115.921 30.9922H115.255V26.206H115.98V29.7609L118.502 26.206ZM126.17 30.9922L124.482 28.6686L123.767 29.4431V30.9922H123.042V26.206H123.767V28.3906L125.783 26.206H126.756L124.978 28.1324L127.054 30.9922H126.17ZM129.55 26.1365C130.92 26.1365 131.883 27.2387 131.883 28.609C131.883 29.9793 130.92 31.0716 129.55 31.0716C128.189 31.0716 127.246 29.9793 127.246 28.609C127.246 27.2387 128.189 26.1365 129.55 26.1365ZM129.55 30.3666C130.533 30.3666 131.158 29.5921 131.158 28.609C131.158 27.626 130.533 26.8316 129.55 26.8316C128.567 26.8316 127.971 27.626 127.971 28.609C127.971 29.5921 128.567 30.3666 129.55 30.3666ZM134.833 30.3666C135.419 30.3666 135.886 30.0985 136.174 29.6517L136.8 29.9595C136.402 30.6347 135.697 31.0617 134.833 31.0617C133.463 31.0617 132.53 29.9694 132.53 28.609C132.53 27.2387 133.463 26.1365 134.824 26.1365C135.697 26.1365 136.402 26.5833 136.8 27.2586L136.174 27.5565C135.886 27.1195 135.419 26.8316 134.824 26.8316C133.85 26.8316 133.255 27.626 133.255 28.609C133.255 29.5921 133.85 30.3666 134.833 30.3666ZM141.939 26.206H142.595V30.9922H141.88V27.477L140.301 29.7807H139.794L138.225 27.477V30.9922H137.501V26.206H138.166L140.052 28.9764L141.939 26.206ZM145.713 26.1365C147.083 26.1365 147.878 27.2387 147.878 28.609C147.878 28.6885 147.868 28.7778 147.868 28.8573H144.184C144.283 29.7212 144.879 30.3666 145.773 30.3666C146.368 30.3666 146.805 30.0985 147.093 29.6517L147.719 29.9595C147.322 30.6347 146.646 31.0617 145.773 31.0617C144.412 31.0617 143.439 29.9694 143.439 28.609C143.439 27.2387 144.353 26.1365 145.713 26.1365ZM145.713 26.8316C144.899 26.8316 144.363 27.3876 144.214 28.1423H147.143C147.004 27.3876 146.537 26.8316 145.713 26.8316ZM152.13 26.206V26.9209H150.58V30.9922H149.866V26.9209H148.326V26.206H152.13ZM154.782 26.1365C156.152 26.1365 157.115 27.2387 157.115 28.609C157.115 29.9793 156.152 31.0716 154.782 31.0716C153.421 31.0716 152.478 29.9793 152.478 28.609C152.478 27.2387 153.421 26.1365 154.782 26.1365ZM154.782 30.3666C155.765 30.3666 156.39 29.5921 156.39 28.609C156.39 27.626 155.765 26.8316 154.782 26.8316C153.799 26.8316 153.203 27.626 153.203 28.609C153.203 29.5921 153.799 30.3666 154.782 30.3666ZM158.539 26.206H161.527V30.9922H160.803V26.9209H159.254C159.234 28.9665 159.075 30.2574 158.429 30.7837C158.122 31.0418 157.774 31.0617 157.417 31.012L157.556 30.307C157.794 30.3467 157.903 30.2872 157.973 30.2276C158.469 29.8205 158.539 28.0927 158.539 26.4443V26.206ZM164.721 26.1365C166.092 26.1365 167.055 27.2387 167.055 28.609C167.055 29.9793 166.092 31.0716 164.721 31.0716C163.361 31.0716 162.418 29.9793 162.418 28.609C162.418 27.2387 163.361 26.1365 164.721 26.1365ZM164.721 30.3666C165.704 30.3666 166.33 29.5921 166.33 28.609C166.33 27.626 165.704 26.8316 164.721 26.8316C163.738 26.8316 163.142 27.626 163.142 28.609C163.142 29.5921 163.738 30.3666 164.721 30.3666ZM170.901 26.206V26.9209H168.568V30.9922H167.853V26.206H170.901ZM174.94 26.206H175.605V30.9922H174.89V27.4373L172.358 30.9922H171.693V26.206H172.418V29.7609L174.94 26.206ZM179.943 26.206H180.609V30.9922H179.894V27.4373L177.362 30.9922H176.696V26.206H177.421V29.7609L179.943 26.206ZM29.6086 34.206H30.2739V38.9922H29.559V35.4373L27.0269 38.9922H26.3616V34.206H27.0865V37.7609L29.6086 34.206ZM34.1484 34.206H38.0607V38.9922H37.3359V34.9209H34.8633V38.9922H34.1484V34.206ZM39.8747 34.206H42.8635V38.9922H42.1387V34.9209H40.5896C40.5697 36.9665 40.4109 38.2574 39.7654 38.7837C39.4576 39.0418 39.1101 39.0617 38.7526 39.012L38.8916 38.307C39.1299 38.3467 39.2391 38.2872 39.3087 38.2276C39.8051 37.8205 39.8747 36.0927 39.8747 34.4443V34.206ZM47.5293 38.9922H46.8143V38.4163C46.3873 38.7837 45.8313 39.0617 45.1461 39.0617C44.2623 39.0617 43.607 38.6248 43.607 37.8205C43.607 36.8771 44.3418 36.4501 45.8114 36.2118C46.5561 36.0927 46.8441 35.9536 46.8342 35.6359C46.8242 35.3082 46.6554 34.7819 45.7419 34.7819C44.8979 34.7819 44.6595 35.199 44.5404 35.6061L43.9049 35.4572C44.034 34.8117 44.59 34.1365 45.7618 34.1365C46.8739 34.1365 47.5193 34.772 47.5193 35.7848C47.5193 36.758 47.5293 38.9922 47.5293 38.9922ZM45.2057 38.3865C46.1391 38.3865 46.8441 37.8006 46.8342 36.9367V36.7182C46.576 36.7679 46.2682 36.8076 45.9107 36.8672C44.878 37.036 44.3616 37.2445 44.3616 37.7708C44.3616 38.2971 44.9674 38.3865 45.2057 38.3865ZM50.575 38.3666C51.1609 38.3666 51.6276 38.0985 51.9156 37.6517L52.5411 37.9595C52.1439 38.6347 51.4389 39.0617 50.575 39.0617C49.2047 39.0617 48.2713 37.9694 48.2713 36.609C48.2713 35.2387 49.2047 34.1365 50.5651 34.1365C51.4389 34.1365 52.1439 34.5833 52.5411 35.2586L51.9156 35.5565C51.6276 35.1195 51.1609 34.8316 50.5651 34.8316C49.592 34.8316 48.9962 35.626 48.9962 36.609C48.9962 37.5921 49.592 38.3666 50.575 38.3666ZM56.8939 34.206V34.9209H55.3449V38.9922H54.6299V34.9209H53.0908V34.206H56.8939ZM60.9886 34.206H61.6539V38.9922H60.9389V35.4373L58.4068 38.9922H57.7415V34.206H58.4664V37.7609L60.9886 34.206ZM65.6646 34.206H66.3895V38.9922H65.6646V37.1154C65.2873 37.314 64.7511 37.5027 64.3738 37.5027C63.0829 37.5027 62.646 36.748 62.646 35.6557V34.206H63.3609V35.6557C63.3609 36.3707 63.6092 36.8374 64.344 36.8374C64.8702 36.8374 65.327 36.6587 65.6646 36.4501V34.206ZM69.5031 34.1365C70.8735 34.1365 71.6679 35.2387 71.6679 36.609C71.6679 36.6885 71.6579 36.7778 71.6579 36.8573H67.9739C68.0732 37.7212 68.669 38.3666 69.5627 38.3666C70.1585 38.3666 70.5954 38.0985 70.8834 37.6517L71.509 37.9595C71.1118 38.6347 70.4366 39.0617 69.5627 39.0617C68.2023 39.0617 67.2292 37.9694 67.2292 36.609C67.2292 35.2387 68.1428 34.1365 69.5031 34.1365ZM69.5031 34.8316C68.6889 34.8316 68.1527 35.3876 68.0037 36.1423H70.9331C70.794 35.3876 70.3273 34.8316 69.5031 34.8316ZM74.5173 38.3666C75.1031 38.3666 75.5698 38.0985 75.8578 37.6517L76.4834 37.9595C76.0862 38.6347 75.3812 39.0617 74.5173 39.0617C73.1469 39.0617 72.2135 37.9694 72.2135 36.609C72.2135 35.2387 73.1469 34.1365 74.5073 34.1365C75.3812 34.1365 76.0862 34.5833 76.4834 35.2586L75.8578 35.5565C75.5698 35.1195 75.1031 34.8316 74.5073 34.8316C73.5342 34.8316 72.9384 35.626 72.9384 36.609C72.9384 37.5921 73.5342 38.3666 74.5173 38.3666ZM80.3122 38.9922L78.6241 36.6686L77.9092 37.4431V38.9922H77.1843V34.206H77.9092V36.3906L79.9249 34.206H80.8981L79.1206 36.1324L81.196 38.9922H80.3122ZM83.6919 34.1365C85.0623 34.1365 86.0255 35.2387 86.0255 36.609C86.0255 37.9793 85.0623 39.0716 83.6919 39.0716C82.3315 39.0716 81.3882 37.9793 81.3882 36.609C81.3882 35.2387 82.3315 34.1365 83.6919 34.1365ZM83.6919 38.3666C84.675 38.3666 85.3006 37.5921 85.3006 36.609C85.3006 35.626 84.675 34.8316 83.6919 34.8316C82.7089 34.8316 82.1131 35.626 82.1131 36.609C82.1131 37.5921 82.7089 38.3666 83.6919 38.3666ZM88.839 33.6301C88.1042 33.6301 87.5382 33.0541 87.5382 32.3292H88.134C88.134 32.7264 88.4319 33.0243 88.839 33.0243C89.2362 33.0243 89.5341 32.7264 89.5341 32.3292H90.1398C90.1398 33.0541 89.5639 33.6301 88.839 33.6301ZM90.0703 34.206H90.7356V38.9922H90.0207V35.4373L87.4886 38.9922H86.8233V34.206H87.5481V37.7609L90.0703 34.206ZM98.5324 38.9922H97.6486L96.318 37.1452L94.9973 38.9922H94.1136L95.8811 36.5296L94.2129 34.206H95.0966L96.318 35.9139L97.5394 34.206H98.4331L96.7648 36.5296L98.5324 38.9922ZM102.473 34.206H103.138V38.9922H102.423V35.4373L99.8912 38.9922H99.2259V34.206H99.9508V37.7609L102.473 34.206ZM106.523 34.1365C107.894 34.1365 108.768 35.2387 108.768 36.609C108.768 37.9793 107.894 39.0716 106.523 39.0716C105.848 39.0716 105.312 38.7936 104.945 38.3467V41.1569H104.23V34.206H104.945V34.8614C105.312 34.4145 105.848 34.1365 106.523 34.1365ZM106.523 38.3666C107.506 38.3666 108.043 37.5921 108.043 36.609C108.043 35.626 107.506 34.8316 106.523 34.8316C105.55 34.8316 104.984 35.626 104.984 36.609C104.984 37.5921 105.55 38.3666 106.523 38.3666ZM112.554 34.206H113.319L111.641 38.8432C111.343 39.6178 111.114 40.154 110.836 40.5412C110.459 41.0477 109.923 41.137 109.347 40.9881L109.476 40.2831C110.151 40.4122 110.34 40.2235 110.817 38.9922L109.069 34.206H109.843L111.194 37.9893L112.554 34.206ZM116.211 34.1365C117.581 34.1365 118.455 35.2387 118.455 36.609C118.455 37.9793 117.581 39.0716 116.211 39.0716C115.536 39.0716 114.999 38.7936 114.632 38.3467V41.1569H113.917V34.206H114.632V34.8614C114.999 34.4145 115.536 34.1365 116.211 34.1365ZM116.211 38.3666C117.194 38.3666 117.73 37.5921 117.73 36.609C117.73 35.626 117.194 34.8316 116.211 34.8316C115.238 34.8316 114.672 35.626 114.672 36.609C114.672 37.5921 115.238 38.3666 116.211 38.3666ZM122.396 34.206V34.9209H120.062V38.9922H119.347V34.206H122.396ZM126.435 34.206H127.1V38.9922H126.385V35.4373L123.853 38.9922H123.188V34.206H123.912V37.7609L126.435 34.206ZM131.438 34.206H132.104V38.9922H131.389V35.4373L128.857 38.9922H128.191V34.206H128.916V37.7609L131.438 34.206Z" fill="#F8F8F8"/>
<path d="M8.32556 40.0096C8.20691 40.3655 8.0487 40.6226 7.85094 40.7808C7.65319 40.9786 7.3961 41.1961 7.07969 41.4334L4.11334 43.3912H4.05401C3.97491 43.3912 3.87603 43.3319 3.75738 43.2132C3.67828 43.1341 3.6585 43.055 3.69805 42.9759L19.479 7.61702C19.5977 7.34016 19.4988 7.20173 19.1824 7.20173C13.3288 7.20173 9.25502 7.28083 6.96104 7.43903C4.70661 7.59724 3.20366 7.93343 2.45218 8.44759C1.70071 8.96176 1.12721 9.89122 0.7317 11.236C0.652597 11.3151 0.553719 11.3546 0.435065 11.3546C0.316411 11.3546 0.197757 11.3348 0.0791026 11.2953C-2.04981e-08 11.2162 -0.0197757 11.1371 0.0197757 11.058L2.09622 2.57422C2.13577 2.49512 2.2742 2.47534 2.51151 2.51489C2.74882 2.51489 2.8477 2.55444 2.80815 2.63355C2.76859 2.79175 2.74882 2.98951 2.74882 3.22682C2.74882 3.62233 2.9268 3.87941 3.28276 3.99807C3.67828 4.11672 4.44953 4.17605 5.59652 4.17605H21.3182C21.4764 4.17605 21.6148 4.27493 21.7335 4.47269C21.8917 4.63089 21.9312 4.7891 21.8521 4.9473L8.32556 40.0096Z" fill="#CEA763"/>
<path d="M36.3761 18.9922L34.7144 14.5537H28.5268L26.8651 18.9922H25.1159L30.8881 3.68706H32.3312L38.1253 18.9922H36.3761ZM29.1171 12.9795H34.1241L31.6096 6.20147L29.1171 12.9795ZM44.5208 17.4179H53.1135V18.9922H42.9465V3.68706H52.9823V5.2613H44.5208V10.5525H52.3045V12.1267H44.5208V17.4179ZM64.0282 10.5088C66.8487 10.9679 69.6473 11.7113 69.6473 14.7286C69.6473 17.6803 66.8705 19.1671 64.0719 19.1671C60.6173 19.1671 58.562 17.5273 57.928 15.8L59.4366 15.2752C60.0488 16.7401 61.7105 17.5929 64.0282 17.5929C65.6461 17.5929 68.0512 16.8713 68.0512 14.7286C68.0512 13.0669 66.7612 12.6078 63.7658 12.0612C60.7704 11.5145 58.3434 10.6837 58.3215 7.86317C58.2997 5.61113 60.0051 3.53401 63.7658 3.53401C66.4551 3.53401 68.4448 4.9552 69.0133 6.81368L67.5046 7.33842C67.1111 5.69859 65.4494 5.10825 63.7658 5.10825C61.3826 5.10825 59.8958 6.04842 59.8958 7.86317C59.8958 9.39368 61.1421 10.0059 64.0282 10.5088ZM84.4533 3.68706V5.2613H79.7087V18.9922H78.1345V5.2613H73.3681V3.68706H84.4533ZM99.384 3.68706H100.958V18.9922H99.384V12.1267H90.9444V18.9922H89.3701V3.68706H90.9444V10.5525H99.384V3.68706ZM108.117 17.4179H116.709V18.9922H106.542V3.68706H116.578V5.2613H108.117V10.5525H115.9V12.1267H108.117V17.4179ZM132.177 3.68706V5.2613H127.432V18.9922H125.858V5.2613H121.092V3.68706H132.177ZM137.307 3.68706H138.881V18.9922H137.307V3.68706ZM151.894 17.6147C153.993 17.6147 155.764 16.5652 156.813 14.9691L158.213 15.6688C156.901 17.7678 154.605 19.1671 151.894 19.1671C147.587 19.1671 144.351 15.6688 144.351 11.3615C144.351 7.05419 147.587 3.55587 151.894 3.55587C154.605 3.55587 156.901 4.93333 158.213 7.05419L156.813 7.73198C155.764 6.15774 153.993 5.10825 151.894 5.10825C148.439 5.10825 145.969 7.9069 145.969 11.3615C145.969 14.8161 148.439 17.6147 151.894 17.6147ZM168.686 10.5088C171.506 10.9679 174.305 11.7113 174.305 14.7286C174.305 17.6803 171.528 19.1671 168.729 19.1671C165.275 19.1671 163.219 17.5273 162.585 15.8L164.094 15.2752C164.706 16.7401 166.368 17.5929 168.686 17.5929C170.304 17.5929 172.709 16.8713 172.709 14.7286C172.709 13.0669 171.419 12.6078 168.423 12.0612C165.428 11.5145 163.001 10.6837 162.979 7.86317C162.957 5.61113 164.662 3.53401 168.423 3.53401C171.112 3.53401 173.102 4.9552 173.671 6.81368L172.162 7.33842C171.768 5.69859 170.107 5.10825 168.423 5.10825C166.04 5.10825 164.553 6.04842 164.553 7.86317C164.553 9.39368 165.799 10.0059 168.686 10.5088Z" fill="#F8F8F8"/>
</svg>
